<mxfile host="app.diagrams.net" agent="Mozilla/5.0 (Windows NT 10.0; Win64; x64) AppleWebKit/537.36 (KHTML, like Gecko) Chrome/137.0.0.0 Safari/537.36" version="27.1.4">
  <diagram name="Page-1" id="WxUiE43nicx5GRPICTld">
    <mxGraphModel dx="508" dy="588" grid="1" gridSize="10" guides="1" tooltips="1" connect="1" arrows="1" fold="1" page="1" pageScale="1" pageWidth="850" pageHeight="1100" math="0" shadow="0">
      <root>
        <mxCell id="0" />
        <mxCell id="1" parent="0" />
        <mxCell id="ad6Ocd1D2nGRHOj1eGpO-6" value="" style="rounded=1;whiteSpace=wrap;html=1;" vertex="1" parent="1">
          <mxGeometry x="410" y="110" width="340" height="465" as="geometry" />
        </mxCell>
        <mxCell id="ad6Ocd1D2nGRHOj1eGpO-1" value="" style="verticalLabelPosition=bottom;html=1;verticalAlign=top;align=center;strokeColor=none;fillColor=#00BEF2;shape=mxgraph.azure.github_code;pointerEvents=1;" vertex="1" parent="1">
          <mxGeometry x="280" y="120" width="50" height="50" as="geometry" />
        </mxCell>
        <mxCell id="ad6Ocd1D2nGRHOj1eGpO-2" value="" style="fontColor=#0066CC;verticalAlign=top;verticalLabelPosition=bottom;labelPosition=center;align=center;html=1;outlineConnect=0;fillColor=#CCCCCC;strokeColor=#6881B3;gradientColor=none;gradientDirection=north;strokeWidth=2;shape=mxgraph.networks.pc;" vertex="1" parent="1">
          <mxGeometry x="20" y="110" width="100" height="70" as="geometry" />
        </mxCell>
        <mxCell id="ad6Ocd1D2nGRHOj1eGpO-7" value="" style="rounded=1;whiteSpace=wrap;html=1;" vertex="1" parent="1">
          <mxGeometry x="455" y="120" width="135" height="430" as="geometry" />
        </mxCell>
        <mxCell id="ad6Ocd1D2nGRHOj1eGpO-8" value="Pipeline" style="text;html=1;align=center;verticalAlign=middle;whiteSpace=wrap;rounded=0;" vertex="1" parent="1">
          <mxGeometry x="492.5" y="160" width="60" height="30" as="geometry" />
        </mxCell>
        <mxCell id="ad6Ocd1D2nGRHOj1eGpO-12" value="" style="group" vertex="1" connectable="0" parent="1">
          <mxGeometry x="425" y="60" width="60" height="30" as="geometry" />
        </mxCell>
        <mxCell id="ad6Ocd1D2nGRHOj1eGpO-10" style="edgeStyle=orthogonalEdgeStyle;rounded=0;orthogonalLoop=1;jettySize=auto;html=1;exitX=1;exitY=0.5;exitDx=0;exitDy=0;exitPerimeter=0;entryX=0.5;entryY=0;entryDx=0;entryDy=0;" edge="1" parent="ad6Ocd1D2nGRHOj1eGpO-12" source="ad6Ocd1D2nGRHOj1eGpO-1" target="ad6Ocd1D2nGRHOj1eGpO-7">
          <mxGeometry relative="1" as="geometry" />
        </mxCell>
        <mxCell id="ad6Ocd1D2nGRHOj1eGpO-11" value="webhook" style="text;html=1;align=center;verticalAlign=middle;whiteSpace=wrap;rounded=0;" vertex="1" parent="ad6Ocd1D2nGRHOj1eGpO-12">
          <mxGeometry width="60" height="30" as="geometry" />
        </mxCell>
        <mxCell id="ad6Ocd1D2nGRHOj1eGpO-13" value="" style="group" vertex="1" connectable="0" parent="1">
          <mxGeometry x="170" y="110" width="60" height="30" as="geometry" />
        </mxCell>
        <mxCell id="ad6Ocd1D2nGRHOj1eGpO-3" style="edgeStyle=orthogonalEdgeStyle;rounded=0;orthogonalLoop=1;jettySize=auto;html=1;exitX=1;exitY=0.5;exitDx=0;exitDy=0;exitPerimeter=0;entryX=0;entryY=0.5;entryDx=0;entryDy=0;entryPerimeter=0;" edge="1" parent="ad6Ocd1D2nGRHOj1eGpO-13" source="ad6Ocd1D2nGRHOj1eGpO-2" target="ad6Ocd1D2nGRHOj1eGpO-1">
          <mxGeometry relative="1" as="geometry" />
        </mxCell>
        <mxCell id="ad6Ocd1D2nGRHOj1eGpO-4" value="git push" style="text;html=1;align=center;verticalAlign=middle;whiteSpace=wrap;rounded=0;" vertex="1" parent="ad6Ocd1D2nGRHOj1eGpO-13">
          <mxGeometry width="60" height="30" as="geometry" />
        </mxCell>
      </root>
    </mxGraphModel>
  </diagram>
</mxfile>
